# xmcd
#
# Track frame offsets: 
#        150
#        3934
#        16994
#        34999
#        45091
#        68035
#        88288
#        100480
#        118413
#        135861
#        142649
#        157676
#        174541
#        192355
#        218490
#        243887
#        259720
#        271958
#        284662
#        302312
#
# Disc length: 4607 seconds
#
# Revision: 0
# Processed by: cddbd v1.5.2PL0 Copyright (c) Steve Scherf et al.
# Submitted via: ExactAudioCopy v0.99pb3
#
DISCID=0311fd14
DTITLE="Unknown" Hinson - Live and Undead
DYEAR=2008
DGENRE=Country
TTITLE0=Unknown Hinson Theme
TTITLE1=Silver Platter
TTITLE2=Peace, Love and Hard Liquor
TTITLE3=You Ain't Callin' The Law
TTITLE4=Train Time -- I Fought TheLaw
TTITLE5=Fish Camp Woman
TTITLE6=Rock 'n' Roll Is Straight From Hell
TTITLE7=Ugly Things
TTITLE8=Undead Blues
TTITLE9=I Ain't Afraid Of Your Husband
TTITLE10=Your Man...
TTITLE11=I Make Faces (When I Make Love)
TTITLE12=Polly Urethane
TTITLE13=Barbie-Q
TTITLE14=Alkyhol Withdrawal
TTITLE15=Lingerie
TTITLE16=Foggy Windows
TTITLE17=I Cleaned-Out A Room (In My Trailer For You)
TTITLE18=Hippie Girl
TTITLE19=The King Of Country Western Troubadours
EXTD=
EXTT0=
EXTT1=
EXTT2=
EXTT3=
EXTT4=
EXTT5=
EXTT6=
EXTT7=
EXTT8=
EXTT9=
EXTT10=
EXTT11=
EXTT12=
EXTT13=
EXTT14=
EXTT15=
EXTT16=
EXTT17=
EXTT18=
EXTT19=
PLAYORDER=
